<svg xmlns="http://www.w3.org/2000/svg" viewBox="0 0 100 125" x="0px" y="0px"><title>Graph</title><g data-name="Business, chart, graph, money, statistic"><path d="M85.5,75h-70A2.5,2.5,0,0,1,13,72.5v-57a2.5,2.5,0,0,1,5,0V70H85.5a2.5,2.5,0,0,1,0,5Z"/><path d="M18.5,58a2.49,2.49,0,0,1-1.77-.73,2.52,2.52,0,0,1,0-3.54l17-17a2.52,2.52,0,0,1,3.54,0L47.81,47.27,67.56,22.92a2.5,2.5,0,0,1,3.88,3.16l-21.5,26.5a2.5,2.5,0,0,1-3.71.19L35.5,42,20.27,57.27A2.49,2.49,0,0,1,18.5,58Z"/><path d="M75.22,37.49a2.5,2.5,0,0,1-2.38-1.77l-3.38-11L57.51,28.4A2.5,2.5,0,1,1,56,23.62l14.34-4.4a2.42,2.42,0,0,1,1.9.18,2.47,2.47,0,0,1,1.22,1.47l4.12,13.38A2.52,2.52,0,0,1,76,37.38,2.65,2.65,0,0,1,75.22,37.49Z"/></g><text x="0" y="115" fill="#000000" font-size="5px" font-weight="bold" font-family="'Helvetica Neue', Helvetica, Arial-Unicode, Arial, Sans-serif">Created by Manglayang studio</text><text x="0" y="120" fill="#000000" font-size="5px" font-weight="bold" font-family="'Helvetica Neue', Helvetica, Arial-Unicode, Arial, Sans-serif">from the Noun Project</text></svg>